<mxfile host="Electron" modified="2024-06-01T12:43:23.141Z" agent="Mozilla/5.0 (Windows NT 10.0; Win64; x64) AppleWebKit/537.36 (KHTML, like Gecko) draw.io/24.4.13 Chrome/124.0.6367.207 Electron/30.0.6 Safari/537.36" etag="Kkp87UXmrzDnEQ1VoGp0" version="24.4.13" type="device">
  <diagram name="Page-1" id="yit4hvvCNSxAe6sVRYxv">
    <mxGraphModel dx="1687" dy="984" grid="0" gridSize="10" guides="1" tooltips="1" connect="1" arrows="1" fold="1" page="1" pageScale="1" pageWidth="850" pageHeight="1100" math="0" shadow="0">
      <root>
        <mxCell id="0" />
        <mxCell id="1" parent="0" />
        <mxCell id="mHvCp_ySBk9BDKlMtv4h-28" value="" style="rounded=0;whiteSpace=wrap;html=1;strokeWidth=2;" vertex="1" parent="1">
          <mxGeometry x="500" y="90" width="750" height="834" as="geometry" />
        </mxCell>
        <mxCell id="mHvCp_ySBk9BDKlMtv4h-29" value="&lt;b&gt;&lt;font style=&quot;font-size: 14px;&quot;&gt;Cafeteria Recommendation System&lt;/font&gt;&lt;/b&gt;" style="text;html=1;align=center;verticalAlign=middle;whiteSpace=wrap;rounded=0;" vertex="1" parent="1">
          <mxGeometry x="720" y="90" width="260" height="30" as="geometry" />
        </mxCell>
        <mxCell id="mHvCp_ySBk9BDKlMtv4h-30" value="Admin" style="shape=umlActor;verticalLabelPosition=bottom;verticalAlign=top;html=1;outlineConnect=0;strokeColor=#00FF00;" vertex="1" parent="1">
          <mxGeometry x="370" y="180" width="40" height="80" as="geometry" />
        </mxCell>
        <mxCell id="mHvCp_ySBk9BDKlMtv4h-33" value="Manage Menu Items" style="ellipse;whiteSpace=wrap;html=1;" vertex="1" parent="1">
          <mxGeometry x="530" y="140" width="120" height="80" as="geometry" />
        </mxCell>
        <mxCell id="mHvCp_ySBk9BDKlMtv4h-34" value="Add" style="ellipse;whiteSpace=wrap;html=1;" vertex="1" parent="1">
          <mxGeometry x="1020" y="140" width="120" height="80" as="geometry" />
        </mxCell>
        <mxCell id="mHvCp_ySBk9BDKlMtv4h-35" value="Update" style="ellipse;whiteSpace=wrap;html=1;" vertex="1" parent="1">
          <mxGeometry x="1020" y="250" width="120" height="80" as="geometry" />
        </mxCell>
        <mxCell id="mHvCp_ySBk9BDKlMtv4h-36" value="Delete" style="ellipse;whiteSpace=wrap;html=1;" vertex="1" parent="1">
          <mxGeometry x="1020" y="360" width="120" height="80" as="geometry" />
        </mxCell>
        <mxCell id="mHvCp_ySBk9BDKlMtv4h-37" value="Login" style="ellipse;whiteSpace=wrap;html=1;" vertex="1" parent="1">
          <mxGeometry x="530" y="250" width="120" height="80" as="geometry" />
        </mxCell>
        <mxCell id="mHvCp_ySBk9BDKlMtv4h-38" value="Verify Password" style="ellipse;whiteSpace=wrap;html=1;" vertex="1" parent="1">
          <mxGeometry x="880" y="260" width="100" height="60" as="geometry" />
        </mxCell>
        <mxCell id="mHvCp_ySBk9BDKlMtv4h-39" value="Login Successful" style="ellipse;whiteSpace=wrap;html=1;" vertex="1" parent="1">
          <mxGeometry x="860" y="350" width="120" height="80" as="geometry" />
        </mxCell>
        <mxCell id="mHvCp_ySBk9BDKlMtv4h-41" value="Employee" style="shape=umlActor;verticalLabelPosition=bottom;verticalAlign=top;html=1;outlineConnect=0;strokeColor=#0000FF;" vertex="1" parent="1">
          <mxGeometry x="370" y="730" width="40" height="80" as="geometry" />
        </mxCell>
        <mxCell id="mHvCp_ySBk9BDKlMtv4h-44" value="Generate Monthly&lt;br&gt;Report" style="ellipse;whiteSpace=wrap;html=1;" vertex="1" parent="1">
          <mxGeometry x="540" y="440" width="120" height="80" as="geometry" />
        </mxCell>
        <mxCell id="mHvCp_ySBk9BDKlMtv4h-45" value="Roll Out&lt;br&gt;Menu" style="ellipse;whiteSpace=wrap;html=1;" vertex="1" parent="1">
          <mxGeometry x="540" y="570" width="120" height="80" as="geometry" />
        </mxCell>
        <mxCell id="mHvCp_ySBk9BDKlMtv4h-46" value="Chef" style="shape=umlActor;verticalLabelPosition=bottom;verticalAlign=top;html=1;outlineConnect=0;strokeColor=#FF0000;" vertex="1" parent="1">
          <mxGeometry x="370" y="500" width="40" height="80" as="geometry" />
        </mxCell>
        <mxCell id="mHvCp_ySBk9BDKlMtv4h-49" value="Login Failed" style="ellipse;whiteSpace=wrap;html=1;" vertex="1" parent="1">
          <mxGeometry x="690" y="350" width="120" height="80" as="geometry" />
        </mxCell>
        <mxCell id="mHvCp_ySBk9BDKlMtv4h-50" value="Give Feedback &lt;br&gt;and Comments&lt;br&gt;For food" style="ellipse;whiteSpace=wrap;html=1;" vertex="1" parent="1">
          <mxGeometry x="540" y="700" width="120" height="80" as="geometry" />
        </mxCell>
        <mxCell id="mHvCp_ySBk9BDKlMtv4h-51" value="Choose Food Items from Recommended Menu" style="ellipse;whiteSpace=wrap;html=1;" vertex="1" parent="1">
          <mxGeometry x="540" y="820" width="120" height="80" as="geometry" />
        </mxCell>
        <mxCell id="mHvCp_ySBk9BDKlMtv4h-52" value="Finalized Menu" style="ellipse;whiteSpace=wrap;html=1;" vertex="1" parent="1">
          <mxGeometry x="740" y="500" width="120" height="80" as="geometry" />
        </mxCell>
        <mxCell id="mHvCp_ySBk9BDKlMtv4h-68" value="" style="endArrow=none;html=1;rounded=0;fillColor=#33FF33;strokeColor=#33FF33;" edge="1" parent="1" source="mHvCp_ySBk9BDKlMtv4h-30" target="mHvCp_ySBk9BDKlMtv4h-33">
          <mxGeometry width="50" height="50" relative="1" as="geometry">
            <mxPoint x="410" y="240" as="sourcePoint" />
            <mxPoint x="460" y="200" as="targetPoint" />
            <Array as="points">
              <mxPoint x="440" y="220" />
              <mxPoint x="470" y="220" />
              <mxPoint x="470" y="200" />
              <mxPoint x="470" y="180" />
            </Array>
          </mxGeometry>
        </mxCell>
        <mxCell id="mHvCp_ySBk9BDKlMtv4h-71" value="" style="endArrow=none;html=1;rounded=0;fillColor=#33FF33;strokeColor=#33FF33;" edge="1" parent="1">
          <mxGeometry width="50" height="50" relative="1" as="geometry">
            <mxPoint x="470" y="220" as="sourcePoint" />
            <mxPoint x="537" y="270" as="targetPoint" />
            <Array as="points">
              <mxPoint x="470" y="270" />
            </Array>
          </mxGeometry>
        </mxCell>
        <mxCell id="mHvCp_ySBk9BDKlMtv4h-72" value="" style="endArrow=none;html=1;rounded=0;strokeColor=#FF0000;" edge="1" parent="1">
          <mxGeometry width="50" height="50" relative="1" as="geometry">
            <mxPoint x="420" y="540.42" as="sourcePoint" />
            <mxPoint x="540" y="480.00000000000006" as="targetPoint" />
            <Array as="points">
              <mxPoint x="470" y="540.42" />
              <mxPoint x="470" y="480.42" />
            </Array>
          </mxGeometry>
        </mxCell>
        <mxCell id="mHvCp_ySBk9BDKlMtv4h-73" value="" style="endArrow=none;html=1;rounded=0;exitX=0;exitY=0.5;exitDx=0;exitDy=0;strokeColor=#FF0000;" edge="1" parent="1" source="mHvCp_ySBk9BDKlMtv4h-45">
          <mxGeometry width="50" height="50" relative="1" as="geometry">
            <mxPoint x="470" y="550" as="sourcePoint" />
            <mxPoint x="470" y="530" as="targetPoint" />
            <Array as="points">
              <mxPoint x="470" y="610" />
            </Array>
          </mxGeometry>
        </mxCell>
        <mxCell id="mHvCp_ySBk9BDKlMtv4h-76" value="" style="endArrow=none;html=1;rounded=0;entryX=0;entryY=0.5;entryDx=0;entryDy=0;fillColor=#FF0000;strokeColor=#FF0000;" edge="1" parent="1" target="mHvCp_ySBk9BDKlMtv4h-37">
          <mxGeometry width="50" height="50" relative="1" as="geometry">
            <mxPoint x="470" y="490" as="sourcePoint" />
            <mxPoint x="540" y="311" as="targetPoint" />
            <Array as="points">
              <mxPoint x="470" y="290" />
            </Array>
          </mxGeometry>
        </mxCell>
        <mxCell id="mHvCp_ySBk9BDKlMtv4h-77" value="" style="endArrow=none;html=1;rounded=0;entryX=0.083;entryY=0.756;entryDx=0;entryDy=0;entryPerimeter=0;strokeColor=#0000FF;" edge="1" parent="1" target="mHvCp_ySBk9BDKlMtv4h-37">
          <mxGeometry width="50" height="50" relative="1" as="geometry">
            <mxPoint x="425" y="780" as="sourcePoint" />
            <mxPoint x="480" y="310" as="targetPoint" />
            <Array as="points">
              <mxPoint x="480" y="780" />
              <mxPoint x="480" y="310" />
            </Array>
          </mxGeometry>
        </mxCell>
        <mxCell id="mHvCp_ySBk9BDKlMtv4h-78" value="" style="endArrow=none;html=1;rounded=0;exitX=0;exitY=0.5;exitDx=0;exitDy=0;strokeColor=#0000FF;" edge="1" parent="1" source="mHvCp_ySBk9BDKlMtv4h-51">
          <mxGeometry width="50" height="50" relative="1" as="geometry">
            <mxPoint x="480" y="840" as="sourcePoint" />
            <mxPoint x="480" y="780" as="targetPoint" />
            <Array as="points">
              <mxPoint x="480" y="860" />
            </Array>
          </mxGeometry>
        </mxCell>
        <mxCell id="mHvCp_ySBk9BDKlMtv4h-79" value="" style="endArrow=none;html=1;rounded=0;strokeColor=#0000FF;" edge="1" parent="1">
          <mxGeometry width="50" height="50" relative="1" as="geometry">
            <mxPoint x="480" y="739.58" as="sourcePoint" />
            <mxPoint x="540" y="739.58" as="targetPoint" />
          </mxGeometry>
        </mxCell>
        <mxCell id="mHvCp_ySBk9BDKlMtv4h-81" value="Recommended Menu" style="ellipse;whiteSpace=wrap;html=1;" vertex="1" parent="1">
          <mxGeometry x="740" y="640" width="120" height="80" as="geometry" />
        </mxCell>
        <mxCell id="mHvCp_ySBk9BDKlMtv4h-84" value="" style="html=1;labelBackgroundColor=#ffffff;startArrow=none;startFill=0;startSize=6;endArrow=classic;endFill=1;endSize=6;jettySize=auto;orthogonalLoop=1;strokeWidth=1;dashed=1;fontSize=14;rounded=0;exitX=0.933;exitY=0.225;exitDx=0;exitDy=0;exitPerimeter=0;" edge="1" parent="1" source="mHvCp_ySBk9BDKlMtv4h-33">
          <mxGeometry width="60" height="60" relative="1" as="geometry">
            <mxPoint x="650" y="180" as="sourcePoint" />
            <mxPoint x="1030" y="160" as="targetPoint" />
            <Array as="points">
              <mxPoint x="980" y="160" />
            </Array>
          </mxGeometry>
        </mxCell>
        <mxCell id="mHvCp_ySBk9BDKlMtv4h-86" value="&amp;lt;&amp;lt;Include&amp;gt;&amp;gt;" style="edgeLabel;html=1;align=center;verticalAlign=middle;resizable=0;points=[];" vertex="1" connectable="0" parent="mHvCp_ySBk9BDKlMtv4h-84">
          <mxGeometry x="-0.0979" y="1" relative="1" as="geometry">
            <mxPoint x="3" as="offset" />
          </mxGeometry>
        </mxCell>
        <mxCell id="mHvCp_ySBk9BDKlMtv4h-87" value="" style="html=1;labelBackgroundColor=#ffffff;startArrow=none;startFill=0;startSize=6;endArrow=classic;endFill=1;endSize=6;jettySize=auto;orthogonalLoop=1;strokeWidth=1;dashed=1;fontSize=14;rounded=0;exitX=0.933;exitY=0.225;exitDx=0;exitDy=0;exitPerimeter=0;entryX=0;entryY=0.5;entryDx=0;entryDy=0;" edge="1" parent="1" target="mHvCp_ySBk9BDKlMtv4h-35">
          <mxGeometry width="60" height="60" relative="1" as="geometry">
            <mxPoint x="650" y="179" as="sourcePoint" />
            <mxPoint x="1038" y="181" as="targetPoint" />
            <Array as="points">
              <mxPoint x="1000" y="180" />
              <mxPoint x="1000" y="290" />
            </Array>
          </mxGeometry>
        </mxCell>
        <mxCell id="mHvCp_ySBk9BDKlMtv4h-88" value="&amp;lt;&amp;lt;Include&amp;gt;&amp;gt;" style="edgeLabel;html=1;align=center;verticalAlign=middle;resizable=0;points=[];" vertex="1" connectable="0" parent="mHvCp_ySBk9BDKlMtv4h-87">
          <mxGeometry x="-0.0979" y="1" relative="1" as="geometry">
            <mxPoint x="-47" y="1" as="offset" />
          </mxGeometry>
        </mxCell>
        <mxCell id="mHvCp_ySBk9BDKlMtv4h-89" value="" style="html=1;labelBackgroundColor=#ffffff;startArrow=none;startFill=0;startSize=6;endArrow=classic;endFill=1;endSize=6;jettySize=auto;orthogonalLoop=1;strokeWidth=1;dashed=1;fontSize=14;rounded=0;exitX=0.933;exitY=0.225;exitDx=0;exitDy=0;exitPerimeter=0;entryX=0;entryY=0.5;entryDx=0;entryDy=0;" edge="1" parent="1" target="mHvCp_ySBk9BDKlMtv4h-36">
          <mxGeometry width="60" height="60" relative="1" as="geometry">
            <mxPoint x="645" y="200" as="sourcePoint" />
            <mxPoint x="1015" y="311" as="targetPoint" />
            <Array as="points">
              <mxPoint x="990" y="200" />
              <mxPoint x="990" y="400" />
            </Array>
          </mxGeometry>
        </mxCell>
        <mxCell id="mHvCp_ySBk9BDKlMtv4h-90" value="&amp;lt;&amp;lt;Include&amp;gt;&amp;gt;" style="edgeLabel;html=1;align=center;verticalAlign=middle;resizable=0;points=[];" vertex="1" connectable="0" parent="mHvCp_ySBk9BDKlMtv4h-89">
          <mxGeometry x="-0.0979" y="1" relative="1" as="geometry">
            <mxPoint x="-84" y="1" as="offset" />
          </mxGeometry>
        </mxCell>
        <mxCell id="mHvCp_ySBk9BDKlMtv4h-91" value="" style="html=1;labelBackgroundColor=#ffffff;startArrow=none;startFill=0;startSize=6;endArrow=classic;endFill=1;endSize=6;jettySize=auto;orthogonalLoop=1;strokeWidth=1;dashed=1;fontSize=14;rounded=0;exitX=0.933;exitY=0.225;exitDx=0;exitDy=0;exitPerimeter=0;entryX=0;entryY=0.5;entryDx=0;entryDy=0;" edge="1" parent="1" target="mHvCp_ySBk9BDKlMtv4h-38">
          <mxGeometry width="60" height="60" relative="1" as="geometry">
            <mxPoint x="650" y="290" as="sourcePoint" />
            <mxPoint x="1025" y="490" as="targetPoint" />
            <Array as="points">
              <mxPoint x="710" y="290" />
            </Array>
          </mxGeometry>
        </mxCell>
        <mxCell id="mHvCp_ySBk9BDKlMtv4h-92" value="&amp;lt;&amp;lt;Include&amp;gt;&amp;gt;" style="edgeLabel;html=1;align=center;verticalAlign=middle;resizable=0;points=[];" vertex="1" connectable="0" parent="mHvCp_ySBk9BDKlMtv4h-91">
          <mxGeometry x="-0.0979" y="1" relative="1" as="geometry">
            <mxPoint y="1" as="offset" />
          </mxGeometry>
        </mxCell>
        <mxCell id="mHvCp_ySBk9BDKlMtv4h-94" value="" style="html=1;labelBackgroundColor=#ffffff;startArrow=none;startFill=0;startSize=6;endArrow=classic;endFill=1;endSize=6;jettySize=auto;orthogonalLoop=1;strokeWidth=1;dashed=1;fontSize=14;rounded=0;exitX=0;exitY=0.5;exitDx=0;exitDy=0;entryX=0.5;entryY=1;entryDx=0;entryDy=0;" edge="1" parent="1" source="mHvCp_ySBk9BDKlMtv4h-49" target="mHvCp_ySBk9BDKlMtv4h-37">
          <mxGeometry width="60" height="60" relative="1" as="geometry">
            <mxPoint x="630" y="340" as="sourcePoint" />
            <mxPoint x="750" y="340" as="targetPoint" />
            <Array as="points">
              <mxPoint x="590" y="390" />
            </Array>
          </mxGeometry>
        </mxCell>
        <mxCell id="mHvCp_ySBk9BDKlMtv4h-95" value="&amp;lt;&amp;lt;Exclude&amp;gt;&amp;gt;" style="edgeLabel;html=1;align=center;verticalAlign=middle;resizable=0;points=[];" vertex="1" connectable="0" parent="mHvCp_ySBk9BDKlMtv4h-94">
          <mxGeometry x="-0.0979" y="1" relative="1" as="geometry">
            <mxPoint x="22" y="-1" as="offset" />
          </mxGeometry>
        </mxCell>
        <mxCell id="mHvCp_ySBk9BDKlMtv4h-98" value="" style="html=1;labelBackgroundColor=#ffffff;startArrow=none;startFill=0;startSize=6;endArrow=classic;endFill=1;endSize=6;jettySize=auto;orthogonalLoop=1;strokeWidth=1;dashed=1;fontSize=14;rounded=0;exitX=0;exitY=0.5;exitDx=0;exitDy=0;" edge="1" parent="1" source="mHvCp_ySBk9BDKlMtv4h-39">
          <mxGeometry width="60" height="60" relative="1" as="geometry">
            <mxPoint x="880" y="380" as="sourcePoint" />
            <mxPoint x="630" y="320" as="targetPoint" />
            <Array as="points">
              <mxPoint x="860" y="320" />
            </Array>
          </mxGeometry>
        </mxCell>
        <mxCell id="mHvCp_ySBk9BDKlMtv4h-99" value="&amp;lt;&amp;lt;Exclude&amp;gt;&amp;gt;" style="edgeLabel;html=1;align=center;verticalAlign=middle;resizable=0;points=[];" vertex="1" connectable="0" parent="mHvCp_ySBk9BDKlMtv4h-98">
          <mxGeometry x="-0.0979" y="1" relative="1" as="geometry">
            <mxPoint x="-40" y="-1" as="offset" />
          </mxGeometry>
        </mxCell>
        <mxCell id="mHvCp_ySBk9BDKlMtv4h-100" value="" style="html=1;labelBackgroundColor=#ffffff;startArrow=none;startFill=0;startSize=6;endArrow=classic;endFill=1;endSize=6;jettySize=auto;orthogonalLoop=1;strokeWidth=1;dashed=1;fontSize=14;rounded=0;exitX=0;exitY=0.5;exitDx=0;exitDy=0;entryX=0.5;entryY=0;entryDx=0;entryDy=0;" edge="1" parent="1" target="mHvCp_ySBk9BDKlMtv4h-45">
          <mxGeometry width="60" height="60" relative="1" as="geometry">
            <mxPoint x="740" y="540" as="sourcePoint" />
            <mxPoint x="640" y="480" as="targetPoint" />
            <Array as="points">
              <mxPoint x="600" y="540" />
            </Array>
          </mxGeometry>
        </mxCell>
        <mxCell id="mHvCp_ySBk9BDKlMtv4h-101" value="&amp;lt;&amp;lt;Exclude&amp;gt;&amp;gt;" style="edgeLabel;html=1;align=center;verticalAlign=middle;resizable=0;points=[];" vertex="1" connectable="0" parent="mHvCp_ySBk9BDKlMtv4h-100">
          <mxGeometry x="-0.0979" y="1" relative="1" as="geometry">
            <mxPoint x="-13" y="-1" as="offset" />
          </mxGeometry>
        </mxCell>
        <mxCell id="mHvCp_ySBk9BDKlMtv4h-104" value="" style="html=1;labelBackgroundColor=#ffffff;startArrow=none;startFill=0;startSize=6;endArrow=classic;endFill=1;endSize=6;jettySize=auto;orthogonalLoop=1;strokeWidth=1;dashed=1;fontSize=14;rounded=0;exitX=0;exitY=0.5;exitDx=0;exitDy=0;entryX=0.5;entryY=1;entryDx=0;entryDy=0;" edge="1" parent="1" source="mHvCp_ySBk9BDKlMtv4h-81" target="mHvCp_ySBk9BDKlMtv4h-45">
          <mxGeometry width="60" height="60" relative="1" as="geometry">
            <mxPoint x="760" y="670" as="sourcePoint" />
            <mxPoint x="620" y="700" as="targetPoint" />
            <Array as="points">
              <mxPoint x="600" y="680" />
            </Array>
          </mxGeometry>
        </mxCell>
        <mxCell id="mHvCp_ySBk9BDKlMtv4h-105" value="&amp;lt;&amp;lt;Exclude&amp;gt;&amp;gt;" style="edgeLabel;html=1;align=center;verticalAlign=middle;resizable=0;points=[];" vertex="1" connectable="0" parent="mHvCp_ySBk9BDKlMtv4h-104">
          <mxGeometry x="-0.0979" y="1" relative="1" as="geometry">
            <mxPoint x="-13" y="-1" as="offset" />
          </mxGeometry>
        </mxCell>
      </root>
    </mxGraphModel>
  </diagram>
</mxfile>
